<svg width="41" height="41" viewBox="0 0 41 41" fill="none" xmlns="http://www.w3.org/2000/svg">
<path d="M25.639 5.189L26.035 6.377C27.575 6.952 28.625 7.817 28.625 9.003C28.625 11.408 24.315 12.501 20.312 12.501C16.308 12.501 12 11.408 12 9.003C12 7.731 13.21 6.829 14.938 6.257L15.326 5.092C12.883 5.739 11 6.969 11 9.002V11.266C11 12.49 11.685 13.421 12.76 14.111L13.155 23.376C13.155 24.4603 17.5726 32.5222 19.466 35.9278C19.8403 36.6011 20.7967 36.6106 21.1834 35.9443C23.1542 32.5484 27.78 24.462 27.78 23.376L28.185 13.883C29.07 13.219 29.623 12.363 29.623 11.266V9.001C29.625 7.064 27.913 5.859 25.639 5.189ZM15.906 23.566C15.43 23.28 14.884 22.72 14.74 22.329C13.733 19.569 14.01 17.409 14.21 14.819C14.958 15.099 15.79 15.311 16.66 15.462C16.445 18.12 16.23 20.385 16.664 23.29C16.73 23.718 16.381 23.85 15.907 23.567L15.906 23.566ZM22.032 23.768C22.012 24.212 21.34 24.623 20.514 24.623C19.686 24.623 19.016 24.21 18.997 23.765C18.871 20.769 18.965 18.443 19.065 15.725C19.483 15.748 19.9 15.763 20.311 15.763C20.853 15.763 21.407 15.743 21.961 15.703C22.061 18.433 22.157 20.763 22.031 23.767L22.032 23.768ZM26.288 22.33C26.145 22.722 25.598 23.28 25.123 23.565C24.65 23.849 24.307 23.715 24.37 23.289C24.807 20.359 24.584 18.081 24.365 15.393C25.245 15.219 26.073 14.976 26.805 14.663C27.007 17.323 27.315 19.515 26.289 22.331L26.288 22.33ZM16.151 8.951C16.4031 9.03414 16.6779 9.01426 16.9154 8.89569C17.1529 8.77711 17.3339 8.56947 17.419 8.318H17.417L18.187 6.001H22.747L23.519 8.317C23.6036 8.56806 23.7842 8.77544 24.0212 8.89385C24.2582 9.01226 24.5324 9.03209 24.784 8.949C24.9087 8.90763 25.0241 8.84208 25.1235 8.7561C25.2229 8.67012 25.3043 8.56539 25.3632 8.44791C25.4221 8.33042 25.4572 8.20248 25.4666 8.07141C25.476 7.94033 25.4595 7.80869 25.418 7.684L24.416 4.684C24.3499 4.48544 24.2231 4.31263 24.0536 4.18992C23.884 4.06722 23.6803 4.00079 23.471 4H17.469C17.041 4 16.657 4.275 16.521 4.683L15.521 7.683C15.346 8.207 15.629 8.773 16.151 8.949V8.951Z" fill="#a200cf"/>
</svg>
