<svg width="40" height="40" viewBox="0 0 40 40" fill="none" xmlns="http://www.w3.org/2000/svg">
<g clip-path="url(#clip0_911_327)">
<path d="M19.9999 3.33337C13.5499 3.33337 8.33325 8.55004 8.33325 15C8.33325 17.9 9.16658 20.6167 10.6833 23.0667C12.2666 25.6334 14.3499 27.8334 15.9499 30.4C16.7333 31.65 17.2999 32.8167 17.8999 34.1667C18.3333 35.0834 18.6833 36.6667 19.9999 36.6667C21.3166 36.6667 21.6666 35.0834 22.0833 34.1667C22.6999 32.8167 23.2499 31.65 24.0333 30.4C25.6333 27.85 27.7166 25.65 29.2999 23.0667C30.8333 20.6167 31.6666 17.9 31.6666 15C31.6666 8.55004 26.4499 3.33337 19.9999 3.33337ZM19.9999 19.5834C17.6999 19.5834 15.8333 17.7167 15.8333 15.4167C15.8333 13.1167 17.6999 11.25 19.9999 11.25C22.2999 11.25 24.1666 13.1167 24.1666 15.4167C24.1666 17.7167 22.2999 19.5834 19.9999 19.5834Z" fill="#2930ff"/>
</g>
<defs>
<clipPath id="clip0_911_327">
<rect width="40" height="40" fill="white"/>
</clipPath>
</defs>
</svg>
