<svg width="40" height="40" viewBox="0 0 40 40" fill="none" xmlns="http://www.w3.org/2000/svg">
<g clip-path="url(#clip0_911_324)">
<path d="M19.9999 3.33331C13.5499 3.33331 8.33325 8.54998 8.33325 15C8.33325 17.9 9.16658 20.6166 10.6833 23.0666C12.2666 25.6333 14.3499 27.8333 15.9499 30.4C16.7333 31.65 17.2999 32.8166 17.8999 34.1666C18.3333 35.0833 18.6833 36.6666 19.9999 36.6666C21.3166 36.6666 21.6666 35.0833 22.0833 34.1666C22.6999 32.8166 23.2499 31.65 24.0333 30.4C25.6333 27.85 27.7166 25.65 29.2999 23.0666C30.8333 20.6166 31.6666 17.9 31.6666 15C31.6666 8.54998 26.4499 3.33331 19.9999 3.33331ZM19.9999 19.5833C17.6999 19.5833 15.8333 17.7166 15.8333 15.4166C15.8333 13.1166 17.6999 11.25 19.9999 11.25C22.2999 11.25 24.1666 13.1166 24.1666 15.4166C24.1666 17.7166 22.2999 19.5833 19.9999 19.5833Z" fill="#ff2929"/>
</g>
<defs>
<clipPath id="clip0_911_324">
<rect width="40" height="40" fill="white"/>
</clipPath>
</defs>
</svg>
